<?xml version="1.0" encoding="utf-8"?>
<!-- Generator: Adobe Illustrator 17.0.0, SVG Export Plug-In . SVG Version: 6.00 Build 0)  -->
<!DOCTYPE svg PUBLIC "-//W3C//DTD SVG 1.1//EN" "http://www.w3.org/Graphics/SVG/1.1/DTD/svg11.dtd">
<svg version="1.1" id="Layer_1" xmlns="http://www.w3.org/2000/svg" xmlns:xlink="http://www.w3.org/1999/xlink" x="0px" y="0px"
	 width="36px" height="36px" viewBox="0 0 36 36" enable-background="new 0 0 36 36" xml:space="preserve">
<g>
	<g>
		<path fill="#414042" d="M18.043,36h-0.086C8.055,36,0,27.926,0,18C0,8.075,8.055,0,17.957,0C27.945,0,36,8.075,36,18
			C36,27.926,27.945,36,18.043,36z M18.043,0.997C8.604,0.997,0.994,8.624,0.994,18c0,9.376,7.609,17.004,16.962,17.004h0.086
			c9.354,0,16.963-7.628,16.963-17.004C35.006,8.624,27.396,0.997,18.043,0.997z"/>
	</g>
	<g>
		<polygon fill="#414042" points="19.919,24.972 12.964,18 19.919,11.027 20.622,11.732 14.369,18 20.622,24.267 		"/>
	</g>
</g>
</svg>
